<?xml version="1.0" standalone="no"?>
<!DOCTYPE svg PUBLIC "-//W3C//DTD SVG 1.0//EN" "http://www.w3.org/TR/2001/REC-SVG-20010904/DTD/svg10.dtd">
<svg xmlns="http://www.w3.org/2000/svg" xmlns:xlink="http://www.w3.org/1999/xlink" id="body_2" width="656" height="435">

<defs>
    <clipPath  id="1">

    <path id=""  clip-rule="evenodd" transform="matrix(1 0 0 1 0 0)"  d="M0 326L0 -0.08200073L0 -0.08200073L492.31 -0.08200073L492.31 -0.08200073L492.31 326L492.31 326L0 326z" />    </clipPath>
    <clipPath  id="2">

    <path id=""  clip-rule="evenodd" transform="matrix(1 0 0 1 0 0)"  d="M0 -0.08200073L492.31 -0.08200073L492.31 -0.08200073L492.31 326L492.31 326L0 326z" />    </clipPath>
</defs>

<g transform="matrix(1.3333 0 0 1.3333 0 0)">
	<g clip-path="url(#1)" >
		<g clip-path="url(#2)" >
    <path id=""  transform="matrix(1 0 0 -1 0 326)"  d="M52.885 27.6467C 52.885 27.6467 49.823997 30.8977 47.146 27.0737L47.146 27.0737L36.625 14.2557C 36.625 14.2557 33.947998 10.047699 28.017998 11.3867C 28.017998 11.3867 22.851997 12.152699 22.851997 16.5517L22.851997 16.5517L22.851997 65.330696C 22.851997 65.330696 22.757998 68.9647 27.060999 70.3037C 27.060999 70.3037 32.225 71.4517 32.033997 74.5117C 32.033997 74.5117 32.489 76.4497 29.738998 76.8087L29.738998 76.8087L2.322998 76.8087C -0.42700195 76.4497 0.027999878 74.5117 0.027999878 74.5117C -0.16300201 71.4517 5.0009995 70.3037 5.0009995 70.3037C 9.3049965 68.9647 9.209999 65.330696 9.209999 65.330696L9.209999 65.330696L9.209999 15.4047C 9.782997 11.4347 4.0459976 10.2397 4.0459976 10.2397C 4.0459976 10.2397 0.04099655 9.9527 0.04099655 6.2217007C 0.04099655 6.2217007 -0.19800186 3.4957008 4.105999 3.3526993L4.105999 3.3526993L40.450996 3.3526993C 40.450996 3.3526993 45.425 -0.47229958 46.764 3.7346992C 46.764 3.7346992 47.338997 5.2647 46.764 8.325701C 46.764 8.325701 46.572998 11.3867 50.017 17.890701C 50.017 17.890701 54.417 23.0557 52.885 27.6467" stroke="none" fill="#000000" fill-rule="evenodd" />
    <path id=""  transform="matrix(1 0 0 -1 0 326)"  d="M72.8919 9.092C 69.7359 9.664 69.7519 12.104 69.7519 12.104L69.7519 12.104L69.7519 55.143997C 69.0339 57.153 64.314896 55.431 64.314896 55.431C 60.4419 53.135998 52.1209 51.844997 52.1209 51.844997C 46.381897 50.697 47.241898 48.689 47.241898 48.689C 47.0999 46.68 54.129898 46.536 54.129898 46.536C 57.8599 46.536 57.284897 44.239998 57.284897 44.239998L57.284897 44.239998L57.284897 12.104C 57.284897 12.104 57.8599 9.664 54.271896 9.092C 54.271896 9.092 50.6849 8.374 50.254898 5.5039997C 50.254898 5.5039997 49.824898 4.213 51.4029 3.6399999L51.4029 3.6399999L75.7619 3.6399999C 77.3399 4.213 76.9099 5.5039997 76.9099 5.5039997C 76.4789 8.374 72.8919 9.092 72.8919 9.092" stroke="none" fill="#000000" fill-rule="evenodd" />
    <path id=""  transform="matrix(1 0 0 -1 0 326)"  d="M152.8044 9.092C 149.9354 9.522 149.7924 12.104 149.7924 12.104L149.7924 12.104L149.53639 76.521C 148.81839 78.53001 144.2274 76.809006 144.2274 76.809006C 140.3544 74.512 132.0334 73.221 132.0334 73.221C 126.294395 72.073 127.155396 70.065 127.155396 70.065C 127.0104 68.056 134.0404 67.912 134.0404 67.912C 137.7714 67.912 137.1974 65.616 137.1974 65.616L137.1974 65.616L137.1974 12.104C 137.1974 12.104 137.0544 9.522 134.1854 9.092C 134.1854 9.092 130.5984 8.374 130.1674 5.5039997C 130.1674 5.5039997 129.7374 4.213 131.3154 3.6399999L131.3154 3.6399999L155.6744 3.6399999C 157.2524 4.213 156.8224 5.5039997 156.8224 5.5039997C 156.3914 8.374 152.8044 9.092 152.8044 9.092" stroke="none" fill="#000000" fill-rule="evenodd" />
    <path id=""  transform="matrix(1 0 0 -1 0 326)"  d="M63.4539 58.8479C 67.8239 58.8479 71.3669 61.2999 71.3669 64.326904C 71.3669 67.3519 67.8239 69.8049 63.4539 69.8049C 59.0849 69.8049 55.5419 67.3519 55.5419 64.326904C 55.5419 61.2999 59.0849 58.8479 63.4539 58.8479" stroke="none" fill="#000000" fill-rule="evenodd" />
    <path id=""  transform="matrix(1 0 0 -1 0 326)"  d="M129.7371 18.5608C 129.7371 18.5608 127.2981 18.9918 126.58211 15.546801C 126.58211 15.546801 125.864105 12.3918 122.27711 12.8218C 122.27711 12.8218 119.407104 13.1078005 119.55111 17.5548L119.55111 17.5548L119.55111 45.3888L119.55111 45.3888L127.2981 45.3888C 127.2981 45.3888 131.6031 45.3888 131.4581 49.4068C 131.4581 49.4068 132.03311 53.495804 127.7281 53.923798L127.7281 53.923798L119.26411 53.923798L119.26411 53.923798L119.26411 66.6218C 119.26411 66.6218 119.98211 69.4918 116.68111 69.3478C 116.68111 69.3478 114.099106 69.633804 113.238106 66.9098C 113.238106 66.9098 110.22311 58.6298 103.557106 53.923798L103.557106 53.923798L92.29211 53.923798L92.29211 53.923798L92.29211 66.6218C 92.29211 66.6218 93.0101 69.4918 89.710106 69.3478C 89.710106 69.3478 87.127106 69.633804 86.266106 66.9098C 86.266106 66.9098 82.68011 57.008804 74.64511 52.706802C 74.64511 52.706802 72.63611 52.1308 73.211105 48.831802C 73.211105 48.831802 73.211105 47.109802 76.9411 47.109802L76.9411 47.109802L79.66611 47.109802L79.66611 47.109802L79.66611 17.2698C 79.66611 17.2698 78.519104 3.639801 90.28311 2.4927998C 90.28311 2.4927998 102.19211 1.3438015 104.77411 15.976801C 104.77411 15.976801 104.91711 18.5608 102.76511 18.5608C 102.76511 18.5608 100.32611 18.9918 99.60811 15.546801C 99.60811 15.546801 98.892105 12.3918 95.30411 12.8218C 95.30411 12.8218 92.435104 13.1078005 92.57811 17.5548L92.57811 17.5548L92.57811 45.3888L92.57811 45.3888L106.63811 45.3888L106.63811 45.3888L106.63811 17.2698C 106.63811 17.2698 105.491104 3.639801 117.2561 2.4927998C 117.2561 2.4927998 129.16411 1.3438015 131.74611 15.976801C 131.74611 15.976801 131.8881 18.5608 129.7371 18.5608" stroke="none" fill="#000000" fill-rule="evenodd" />
    <path id=""  transform="matrix(1 0 0 -1 0 326)"  d="M174.2122 54.7132C 174.2122 54.7132 159.2922 55.1442 155.2752 38.3592C 155.2752 38.3592 151.4012 20.856201 159.1492 7.0831985C 159.1492 7.0831985 162.44821 -0.09080124 173.4962 0.053199768C 173.4962 0.053199768 187.84221 0.48320007 189.7082 14.256199C 189.7082 14.256199 190.2812 17.7002 188.12921 17.8432C 188.12921 17.8432 185.54721 18.2742 184.3992 15.547199C 184.3992 15.547199 181.0992 7.2262 173.6392 9.522198C 173.6392 9.522198 164.31421 12.679199 165.3182 32.9072C 165.3182 32.9072 165.60521 43.3802 172.2052 47.6842C 172.2052 47.6842 176.8672 50.4092 178.3742 44.098198C 178.3742 44.098198 179.2352 42.4472 178.9472 34.3422C 178.9472 34.3422 179.01921 31.2572 175.0732 31.0422C 175.0732 31.0422 170.0522 31.0422 169.47821 28.0282C 169.47821 28.0282 168.18721 24.4422 172.49121 24.586199L172.49121 24.586199L189.9942 24.586199C 189.9942 24.586199 191.4292 29.7502 189.2772 42.8062C 189.2772 42.8062 187.9862 54.7132 174.2122 54.7132" stroke="none" fill="#000000" fill-rule="evenodd" />
    <path id=""  transform="matrix(1 0 0 -1 0 326)"  d="M323.4207 55.8792C 323.4207 55.8792 308.4997 56.3102 304.4827 39.5252C 304.4827 39.5252 300.60867 22.022202 308.3567 8.248199C 308.3567 8.248199 311.65668 1.0741997 322.7027 1.2192001C 322.7027 1.2192001 337.0507 1.6492004 338.9167 15.422199C 338.9167 15.422199 339.4897 18.8642 337.33768 19.009201C 337.33768 19.009201 334.7537 19.4402 333.6077 16.7132C 333.6077 16.7132 330.30768 8.3922 322.8477 10.688198C 322.8477 10.688198 313.5217 13.8442 314.5257 34.0722C 314.5257 34.0722 314.81268 44.5462 321.41168 48.8492C 321.41168 48.8492 326.0737 51.5752 327.5817 45.2642C 327.5817 45.2642 328.44168 43.6132 328.1547 35.5082C 328.1547 35.5082 328.2277 32.423203 324.28168 32.2082C 324.28168 32.2082 319.25967 32.2082 318.68668 29.1942C 318.68668 29.1942 317.3957 25.6082 321.69968 25.7512L321.69968 25.7512L339.2027 25.7512C 339.2027 25.7512 340.6377 30.9162 338.48468 43.973198C 338.48468 43.973198 337.1937 55.8792 323.4207 55.8792" stroke="none" fill="#000000" fill-rule="evenodd" />
    <path id=""  transform="matrix(1 0 0 -1 0 326)"  d="M241.8826 70.513C 241.8826 70.513 245.7076 70.513 246.2826 63.436C 246.2826 63.436 246.2826 57.315002 247.2396 54.827C 247.2396 54.827 248.0036 53.297 249.9166 53.489C 249.9166 53.489 252.97859 53.870003 253.1696 57.698C 253.1696 57.698 253.6956 64.511 257.2586 69.078C 257.2586 69.078 260.5816 72.236 259.4826 76.061C 259.4826 76.061 258.1426 79.696 253.5516 76.443C 253.5516 76.443 252.2366 74.721 249.53459 77.018C 249.53459 77.018 237.1006 85.818 224.1406 72.618004C 224.1406 72.618004 205.2016 51.432 216.5356 19.008999C 216.5356 19.008999 223.2796 1.9370041 239.0616 1.7919998C 239.0616 1.7919998 243.9396 1.5059967 246.6646 4.231003C 246.6646 4.231003 247.9556 5.2350006 249.10359 4.661003C 249.10359 4.661003 250.82559 2.2220001 252.1156 2.5100021C 252.1156 2.5100021 254.2686 2.0790024 254.8426 5.5230026C 254.8426 5.5230026 255.5606 12.839001 257.9996 21.304C 257.9996 21.304 260.4376 26.182 258.1426 28.191002C 258.1426 28.191002 255.8466 30.342 252.4036 23.887001C 252.4036 23.887001 246.5216 15.422001 244.6556 13.413002C 244.6556 13.413002 241.0706 8.534 235.9046 12.696999C 235.9046 12.696999 227.0096 19.582 226.4356 41.676003C 226.4356 41.676003 226.7226 58.319 234.1836 67.645004C 234.1836 67.645004 237.4346 71.66 241.8826 70.513" stroke="none" fill="#000000" fill-rule="evenodd" />
    <path id=""  transform="matrix(1 0 0 -1 0 326)"  d="M303.7664 6.9573C 303.7664 6.9573 298.6004 6.9573 298.17038 13.987301C 298.17038 13.987301 299.0314 34.0723 297.0224 46.8403C 297.0224 46.8403 294.58438 58.461304 280.52438 56.8853C 280.52438 56.8853 274.92938 56.4543 270.1944 54.3013C 270.1944 54.3013 268.7164 54.908302 267.89938 53.656303C 267.89938 53.656303 266.7514 44.044304 265.81738 40.3853C 265.81738 40.3853 265.1734 37.0853 267.5384 36.5123C 267.5384 36.5123 269.0464 35.9373 270.0514 38.3763C 270.0514 38.3763 274.2834 45.478302 277.29538 47.486298C 277.29538 47.486298 283.8954 51.1453 285.8324 43.3973C 285.8324 43.3973 287.6974 38.2333 284.6844 37.2293C 284.6844 37.2293 262.1604 31.2033 261.2984 18.8643C 261.2984 18.8643 260.0084 6.8133 269.0464 2.0793004C 269.0464 2.0793004 276.93738 -0.6466999 281.67038 3.2273002C 281.67038 3.2273002 283.6804 5.0923004 283.10638 7.5303C 283.10638 7.5303 282.53238 9.970301 279.8064 8.9653C 279.8064 8.9653 276.93738 8.1033 275.50238 9.8273C 275.50238 9.8273 270.7674 14.1313 276.3634 22.7393C 276.3634 22.7393 279.5184 27.761301 285.8324 29.4813C 285.8324 29.4813 284.6844 14.8483 286.6934 5.0923004C 286.6934 5.0923004 286.6934 2.0793004 290.56638 2.2223L290.56638 2.2223L301.7574 2.2223C 301.7574 2.2223 304.91238 1.6483002 305.6304 4.3743C 305.6304 4.3743 306.3484 6.8133 303.7664 6.9573" stroke="none" fill="#000000" fill-rule="evenodd" />
    <path id=""  transform="matrix(1 0 0 -1 0 326)"  d="M362.8748 32.637C 356.70578 35.221 354.9838 37.946 354.9838 37.946C 352.9758 41.102 354.9838 44.833 354.9838 44.833C 358.4268 49.424004 363.0178 46.267002 363.0178 46.267002C 366.17477 44.259003 368.04077 37.946 368.04077 37.946C 368.75778 34.36 371.4828 34.503002 371.4828 34.503002C 373.92178 34.216 373.6348 38.09 373.6348 38.09C 374.0648 50.428 372.0568 54.446 372.0568 54.446C 370.76578 56.454002 367.0348 54.732002 367.0348 54.732002C 366.4618 54.015 364.8838 54.588 364.8838 54.588C 357.2798 56.454002 353.4058 55.019 353.4058 55.019C 340.9238 51.002 342.64578 36.081 342.64578 36.081C 343.7928 24.746002 357.8538 21.735 357.8538 21.735C 362.73178 20.587002 363.8798 15.852001 363.8798 15.852001C 366.0318 8.392 359.5748 8.534 359.5748 8.534C 354.12378 8.679001 351.3978 13.557001 351.3978 13.557001C 349.24478 17.574001 346.66278 21.16 346.66278 21.16C 344.3678 25.033 342.64578 22.451 342.64578 22.451C 341.3538 19.727001 343.2198 13.988001 343.2198 13.988001C 343.2198 11.118002 342.21478 5.9520016 342.21478 5.9520016C 340.9238 0.070999146 343.93777 0.7880001 343.93777 0.7880001C 345.8018 0.644001 346.9498 3.2270012 346.9498 3.2270012C 348.0968 4.519001 349.3898 3.2270012 349.3898 3.2270012C 354.4108 0.3580017 360.4358 0.21300125 360.4358 0.21300125C 376.50378 0.070999146 375.21378 17.287 375.21378 17.287C 375.21378 29.482 362.8748 32.637 362.8748 32.637" stroke="none" fill="#000000" fill-rule="evenodd" />
    <path id=""  transform="matrix(1 0 0 -1 0 326)"  d="M492.2854 17.2874C 492.2854 29.4814 479.9464 32.637398 479.9464 32.637398C 473.7774 35.221397 472.0544 37.9454 472.0544 37.9454C 470.0474 41.1014 472.0544 44.833397 472.0544 44.833397C 475.4984 49.4244 480.0894 46.2664 480.0894 46.2664C 483.2464 44.2594 485.1104 37.9454 485.1104 37.9454C 485.8284 34.359398 488.5534 34.5034 488.5534 34.5034C 490.9934 34.2164 490.7064 38.0904 490.7064 38.0904C 491.1374 50.4284 489.1284 54.4454 489.1284 54.4454C 487.8374 56.4544 484.1074 54.7314 484.1074 54.7314C 483.5324 54.0154 481.9544 54.588398 481.9544 54.588398C 474.3504 56.4544 470.4774 55.0184 470.4774 55.0184C 457.9954 51.0024 459.7174 36.081398 459.7174 36.081398C 460.8654 24.746399 474.9254 21.7344 474.9254 21.7344C 479.8024 20.587399 480.9504 15.851399 480.9504 15.851399C 483.1014 8.391399 476.6464 8.534399 476.6464 8.534399C 471.1954 8.6793995 468.4684 13.5574 468.4684 13.5574C 466.3164 17.573399 463.7344 21.160398 463.7344 21.160398C 461.43842 25.0334 459.7174 22.451399 459.7174 22.451399C 458.4264 19.726398 460.2904 13.987399 460.2904 13.987399C 460.2904 11.118399 459.2864 5.9523993 459.2864 5.9523993C 457.9954 0.07040024 461.0084 0.78839874 461.0084 0.78839874C 462.8724 0.6434002 464.0204 3.2263994 464.0204 3.2263994C 465.1684 4.5183992 466.4594 3.2263994 466.4594 3.2263994C 471.4804 0.357399 477.5074 0.21339989 477.5074 0.21339989C 493.5764 0.07040024 492.2854 17.2874 492.2854 17.2874" stroke="none" fill="#000000" fill-rule="evenodd" />
    <path id=""  transform="matrix(1 0 0 -1 0 326)"  d="M449.9602 55.0188C 449.9602 55.0188 443.6482 52.4368 439.6312 42.5378C 439.6312 42.5378 441.49622 56.0238 436.1882 55.5928C 436.1882 55.5928 434.6092 55.305798 433.0312 54.3008C 433.0312 54.3008 429.1572 51.4318 422.8452 50.284798C 422.8452 50.284798 418.5422 50.139797 418.82822 46.6978C 418.82822 46.6978 418.5422 44.832798 421.2672 44.5458C 421.2672 44.5458 423.8492 44.5458 424.85422 43.9728C 424.85422 43.9728 427.8662 44.1158 427.8662 39.3808L427.8662 39.3808L427.8662 10.973801C 427.8662 10.973801 425.73822 6.4937973 422.2222 6.205799C 421.6122 6.235798 415.0452 6.5018005 414.85822 12.8387985C 414.85822 12.8387985 415.7202 32.924797 413.7112 45.693798C 413.7112 45.693798 411.27222 57.3148 397.21222 55.736797C 397.21222 55.736797 391.6162 55.305798 386.8822 53.1548C 386.8822 53.1548 385.4042 53.7598 384.5862 52.507797C 384.5862 52.507797 383.4382 42.895798 382.5062 39.2378C 382.5062 39.2378 381.8612 35.937798 384.2292 35.3638C 384.2292 35.3638 385.7342 34.7898 386.73822 37.229797C 386.73822 37.229797 390.9712 44.3308 393.9842 46.3378C 393.9842 46.3378 400.5842 49.9978 402.5192 42.2488C 402.5192 42.2488 404.3852 37.0848 401.3732 36.0818C 401.3732 36.0818 378.8472 30.054798 377.98822 17.7178C 377.98822 17.7178 376.6952 5.665798 385.7342 0.931797C 385.7342 0.931797 393.6252 -1.7942009 398.3602 2.0797997C 398.3602 2.0797997 400.3682 3.9447975 399.7942 6.3827972C 399.7942 6.3827972 399.2212 8.8228 396.4952 7.818798C 396.4952 7.818798 393.6252 6.9567986 392.1912 8.678799C 392.1912 8.678799 387.4562 12.9828 393.0512 21.590797C 393.0512 21.590797 396.2072 26.612799 402.5192 28.332798C 402.5192 28.332798 401.3732 13.700798 403.3812 3.9447975C 403.3812 3.9447975 403.3812 0.931797 407.2542 1.0747986L407.2542 1.0747986L443.7912 1.0747986C 443.7912 1.0747986 449.2442 0.35779953 448.8142 3.6577988C 448.8142 3.6577988 449.10022 6.6698 444.50922 7.3877983C 444.50922 7.3877983 440.06122 7.9608 440.3482 10.973801C 440.3482 10.973801 439.3442 27.3308 441.7842 37.229797C 441.7842 37.229797 443.6482 40.242798 447.8092 41.5338C 447.8092 41.5338 448.8142 41.818798 449.6742 40.6728C 449.6742 40.6728 451.8262 37.9458 454.5532 39.5248C 454.5532 39.5248 459.4302 39.9548 457.7082 51.0018C 457.7082 51.0018 457.2782 56.8848 449.9602 55.0188" stroke="none" fill="#000000" fill-rule="evenodd" />
    <path id=""  transform="matrix(1 0 0 -1 0 326)"  d="M349.2659 216.4983C 349.2659 155.97731 300.2039 106.915306 239.68289 106.915306C 179.1619 106.915306 130.09889 155.97731 130.09889 216.4983C 130.09889 277.01932 179.1619 326.0823 239.68289 326.0823C 239.7109 326.0823 239.73889 326.0823 239.7669 326.0813C 300.25488 326.0353 349.2659 276.9863 349.2659 216.4983" stroke="none" fill="#FFFFFF" fill-rule="nonzero" />
    <path id=""  transform="matrix(1 0 0 -1 0 326)"  d="M239.5717 112.986694C 182.6697 112.986694 136.36969 159.2877 136.36969 216.1897C 136.36969 273.0917 182.6647 319.3867 239.5667 319.3867C 296.4687 319.3867 342.7697 273.0917 342.7697 216.1897C 342.7697 159.2877 296.4747 112.986694 239.5717 112.986694M239.5667 314.6687C 185.2637 314.6687 141.0877 270.4927 141.0877 216.1897C 141.0877 161.8807 185.2637 117.7047 239.5667 117.7047C 293.8747 117.7047 338.0517 161.8807 338.0517 216.1897C 338.0517 270.4927 293.8747 314.6687 239.5667 314.6687" stroke="none" fill="#231F20" fill-rule="nonzero" />
    <path id=""  transform="matrix(1 0 0 -1 0 326)"  d="M138.7263 216.1873C 138.7263 271.8813 183.8753 317.0303 239.5693 317.0303C 295.2633 317.0303 340.4123 271.8813 340.4123 216.1873C 340.4123 160.4933 295.2633 115.3453 239.5693 115.3453L239.5693 115.3453L239.5693 115.3453C 183.8753 115.3453 138.7263 160.4933 138.7263 216.1873" stroke="none" fill="#FFFFFF" fill-rule="nonzero" />
    <path id=""  transform="matrix(1 0 0 -1 0 326)"  d="M269.8645 225.4089C 269.4275 227.3219 268.8885 229.2099 268.2515 231.0659C 264.5465 215.5939 255.7205 202.1569 246.5285 188.97491C 246.0705 188.1389 245.4675 187.3909 244.7455 186.7689C 243.9355 187.1289 243.2265 187.6819 242.6805 188.3819C 249.2615 197.4559 255.0795 207.0589 260.0775 217.09291C 261.2555 219.6419 262.2015 222.2939 262.9065 225.01291C 255.9155 214.3909 246.7575 205.3679 236.03351 198.5359C 232.4635 195.9369 228.6775 193.64691 224.7185 191.6909L224.7185 191.6909L224.7185 173.5019L224.7185 173.5019L224.4915 168.3259L224.4915 168.3259L235.1565 169.1459L235.1565 169.1459L254.4205 170.4189L254.4205 170.4189L274.5885 171.4089L274.5885 171.4089L279.5105 171.6349L279.5105 171.6349L271.3645 219.7229" stroke="none" fill="#EF6511" fill-rule="nonzero" />
    <path id=""  transform="matrix(1 0 0 -1 0 326)"  d="M221.6506 165.3899L222.0126 173.6209L222.0126 173.6209L222.0096 193.37389L222.0096 193.37389L223.51761 194.11989C 227.3276 196.0029 231.0016 198.22488 234.4406 200.72789C 245.0476 207.49289 253.8186 216.1339 260.6446 226.50389L260.6446 226.50389L263.7026 225.14389C 264.4426 227.2919 265.08362 229.4729 265.6166 231.6969L265.6166 231.6969L267.7856 240.75488L267.7856 240.75488L270.8156 231.9469C 271.4816 230.0089 272.0506 228.0119 272.5056 226.0109L272.5056 226.0109L269.4676 225.3169C 265.1666 211.6679 257.26062 199.63289 248.8306 187.53589C 248.2216 186.46689 247.4456 185.51889 246.51761 184.7179L246.51761 184.7179L245.2186 183.5969L245.2186 183.5969L243.6506 184.28989C 242.44061 184.8259 241.3656 185.66289 240.54561 186.71089L240.54561 186.71089L239.2886 188.3189L239.2886 188.3189L240.4866 189.9729C 244.5726 195.6059 248.37961 201.47789 251.8656 207.52289C 247.4846 203.3259 242.6866 199.55989 237.4906 196.2499C 234.37961 193.98189 230.97061 191.8729 227.42961 190.02689L227.42961 190.02689L227.33261 171.2629L227.33261 171.2629L234.94861 171.8479L234.94861 171.8479L254.24161 173.1229L254.24161 173.1229L276.3266 174.2029L276.3266 174.2029L268.6916 219.2699L268.6916 219.2699L274.0336 220.17589L274.0336 220.17589L282.6966 169.06989L282.6966 169.06989L254.5536 167.7119z" stroke="none" fill="#EF6511" fill-rule="nonzero" />
    <path id=""  transform="matrix(1 0 0 -1 0 326)"  d="M274.7014 252.5925C 271.87238 251.6585 268.7894 250.5275 265.8194 249.5665C 273.73538 248.1765 281.8184 248.0335 289.77838 249.1415C 290.13037 249.2935 290.33038 249.6695 290.2594 250.0465C 289.2324 252.9455 288.03238 255.7785 286.66638 258.5325C 283.6124 257.0335 280.5854 255.3645 277.4734 253.9785C 276.5914 253.43849 275.6634 252.9745 274.7014 252.5925" stroke="none" fill="#EF6511" fill-rule="nonzero" />
    <path id=""  transform="matrix(1 0 0 -1 0 326)"  d="M279.1445 245.6943C 274.5315 245.6943 269.92047 246.0943 265.3515 246.89531L265.3515 246.89531L264.9845 252.1443C 266.58047 252.6613 268.21048 253.2283 269.8155 253.7863C 271.16348 254.2543 272.49548 254.7173 273.77448 255.1403C 274.56448 255.4573 275.3325 255.8443 276.05548 256.2893L276.05548 256.2893L276.37048 256.4533C 278.31848 257.3203 280.2305 258.3023 282.1355 259.2803C 283.2465 259.8503 284.35648 260.4183 285.47247 260.9653L285.47247 260.9653L287.89548 262.1553L287.89548 262.1553L289.09448 259.7383C 290.5005 256.9023 291.7515 253.9463 292.8155 250.95331L292.8155 250.95331L292.92548 250.53531C 293.2245 248.90831 292.37347 247.31131 290.85648 246.6533L290.85648 246.6533L290.1525 246.4573C 286.49548 245.9483 282.81848 245.6943 279.1445 245.6943M277.9485 251.1233C 280.90347 251.0863 283.8675 251.2043 286.81848 251.5113C 286.3765 252.64131 285.90448 253.7603 285.40448 254.86531C 285.1385 254.72931 284.87347 254.5923 284.6085 254.4563C 282.66647 253.46031 280.7165 252.4633 278.73248 251.5733C 278.4755 251.41731 278.2135 251.26831 277.9485 251.1233" stroke="none" fill="#EF6511" fill-rule="nonzero" />
    <path id=""  transform="matrix(1 0 0 -1 0 326)"  d="M195.2151 286.5935C 191.52211 284.40152 188.0131 281.9125 184.72011 279.1545C 175.7261 271.7995 170.5771 261.7015 172.5011 250.0755C 172.95311 248.5755 172.6711 246.68051 174.1701 245.77551C 174.8531 245.42351 175.6651 245.42351 176.3481 245.77551C 177.8241 247.04851 178.9691 248.65952 179.6851 250.4705C 182.0721 255.80151 185.0311 260.8575 188.51111 265.5485C 192.3211 270.4905 197.6971 273.99152 203.7581 275.4765C 210.4621 276.60852 218.0711 277.2305 221.7771 284.1325C 217.0081 283.1065 212.06511 283.2225 207.3501 284.4715C 208.7861 288.02652 210.4491 291.4845 212.3291 294.8245L212.3291 294.8245L212.1591 295.2495C 208.6501 293.9125 205.2381 292.3335 201.9471 290.5255C 200.1661 289.3935 197.3371 288.0355 195.2151 286.5935" stroke="none" fill="#EF6511" fill-rule="nonzero" />
    <path id=""  transform="matrix(1 0 0 -1 0 326)"  d="M175.2591 242.8013C 174.4581 242.8013 173.65709 242.9903 172.9271 243.3673C 170.61209 244.7573 170.28409 246.9783 170.09009 248.3073C 170.04109 248.6423 169.9991 248.9823 169.90509 249.2943L169.90509 249.2943L169.8281 249.6313C 167.86609 261.4733 172.54709 272.7023 183.0051 281.2513C 186.35309 284.0583 189.98009 286.6323 193.7611 288.8823C 195.07109 289.7653 196.59009 290.6033 197.93309 291.3433C 198.8801 291.8663 199.7771 292.3573 200.49309 292.8113C 204.03209 294.7633 207.58409 296.4063 211.19409 297.7823L211.19409 297.7823L213.6951 298.7343L213.6951 298.7343L215.3221 294.6213L215.3221 294.6213L214.68909 293.4963C 213.40408 291.2143 212.2161 288.8563 211.14209 286.4553C 214.47609 285.9683 217.90709 286.0733 221.2081 286.7823L221.2081 286.7823L226.9401 288.0163L226.9401 288.0163L224.1641 282.8513C 220.1451 275.3633 212.26909 274.1003 205.94308 273.0873L205.94308 273.0873L204.20909 272.8043C 198.96309 271.5113 194.07909 268.3323 190.6561 263.8933C 187.32509 259.3993 184.4551 254.4973 182.1621 249.3653C 181.3281 247.2593 179.9141 245.2703 178.1151 243.7213L178.1151 243.7213L177.59009 243.3673C 176.8611 242.9903 176.06009 242.8013 175.2591 242.8013M175.1511 250.6633C 175.2871 250.1603 175.37509 249.6273 175.45209 249.0943C 175.46909 248.9893 175.48509 248.8693 175.5051 248.7473C 176.20709 249.5503 176.77309 250.4743 177.16809 251.4703C 179.66809 257.0693 182.7361 262.3123 186.3331 267.1633C 190.5351 272.6123 196.48509 276.4853 203.1151 278.1093L203.1151 278.1093L205.0851 278.4393C 208.4191 278.9743 211.6481 279.4923 214.32709 280.7473C 211.73909 280.8203 209.15909 281.1893 206.6561 281.8523L206.6561 281.8523L203.68709 282.6403L203.68709 282.6403L204.83609 285.4873C 205.44609 286.9983 206.10109 288.4983 206.79509 289.9803C 205.5951 289.3993 204.41309 288.7883 203.25009 288.1493C 202.60109 287.7303 201.6041 287.17828 200.5481 286.5963C 199.2231 285.8653 197.85309 285.1103 196.73608 284.3523L196.73608 284.3523L196.5981 284.2633C 193.04309 282.1523 189.63109 279.7333 186.46109 277.0763C 177.58809 269.8223 173.5851 260.4553 175.1511 250.6633" stroke="none" fill="#EF6511" fill-rule="nonzero" />
    <path id=""  transform="matrix(1 0 0 -1 0 326)"  d="M252.6379 279.4368C 253.1749 278.0788 252.4679 276.6078 252.2419 275.3638C 251.72789 273.9158 250.49289 272.8428 248.98889 272.5348C 247.3299 272.2568 245.6399 272.8058 244.46289 274.0058C 244.1079 274.5718 244.02489 275.2678 244.2369 275.9008C 245.82089 276.9768 248.0829 275.4768 249.6669 276.6648C 250.42389 277.4328 250.9099 278.4258 251.0539 279.4938C 251.4699 279.9158 252.1509 279.92178 252.5739 279.5058C 252.59589 279.4838 252.6169 279.4608 252.6379 279.4368" stroke="none" fill="#231F20" fill-rule="nonzero" />
    <path id=""  transform="matrix(1 0 0 -1 0 326)"  d="M219.174 137.9738C 217.929 138.2568 216.996 137.20981 215.893 136.8428C 215.44 136.6168 214.761 136.4178 214.818 135.7958C 214.875 135.1738 215.21399 134.7778 215.526 134.7208C 217.07 134.7988 218.6 135.0648 220.08 135.5138C 220.278 135.76779 220.08 136.70181 220.08 136.8988zM271.392 137.9738C 270.656 138.17181 269.836 139.1908 269.072 138.3418C 268.761 137.7478 267.771 137.1818 267.715 136.05081L267.715 136.05081L273.202 134.9478L273.202 134.9478L274.136 135.7108C 274.136 135.99481 274.33398 136.30481 274.136 136.5028zM224.916 140.8028C 224.068 140.3498 222.484 140.4068 222.569 139.1058L222.569 139.1058L223.842 136.95581C 224.747 136.3898 225.85 136.95581 226.84 136.95581C 227.236 136.95581 227.802 137.15381 227.717 137.6908C 227.183 138.8328 226.43399 139.86081 225.51 140.7178zM263.641 141.3118C 262.741 140.40381 261.97 139.3758 261.35 138.2568C 261.35 138.03079 260.982 137.6348 261.35 137.4368L261.35 137.4368L264.603 136.9838C 264.907 137.20581 265.142 137.5108 265.282 137.8618C 265.537 138.7088 266.555 139.21881 266.329 140.12381C 265.487 140.6468 264.58398 141.0648 263.641 141.3688zM232.073 143.6878C 231.19699 143.40579 229.951 143.3768 229.69699 142.33081C 230.227 140.7518 230.959 139.2498 231.875 137.8618C 232.914 137.4978 234.058 137.6018 235.015 138.1438C 235.015 139.16281 234.336 139.9548 234.025 140.97281C 233.714 141.99081 233.233 143.2638 232.073 143.74481zM257.079 143.99881C 255.811 142.9328 254.837 141.55981 254.25 140.0108C 254.08 139.4448 253.769 138.56781 254.25 138.11581C 255.18199 137.9108 256.147 137.9108 257.079 138.11581C 257.772 139.6958 258.605 141.20981 259.568 142.6418C 258.895 143.3458 258.03 143.8378 257.079 144.0558zM240.588 145.9788C 239.297 146.3118 237.928 146.1618 236.73999 145.55481C 236.288 145.55481 236.203 144.8758 236.344 144.4798C 237.245 142.4098 238.255 140.3888 239.371 138.4268C 240.106 137.8618 241.26599 138.2568 242.2 138.2288C 242.591 138.2288 242.907 138.5448 242.907 138.9358C 242.907 141.2268 242.907 143.46179 242.624 145.7818zM248.847 146.9418C 247.941 146.61981 246.97299 146.5128 246.018 146.6298C 245.721 144.0828 245.721 141.5108 246.018 138.9638C 247.035 138.4968 248.159 138.3118 249.272 138.4268L249.272 138.4268L251.422 142.6688C 251.761 143.60281 252.637 144.39581 252.637 145.4978C 251.896 145.9878 251.056 146.3058 250.176 146.4318zM241.634 164.6768C 240.474 164.6768 239.371 164.6768 238.211 164.5358C 238.211 159.7268 238.89 156.0488 239.116 151.77881L239.116 151.77881L239.4 150.8448C 239.767 150.5048 240.276 150.6748 240.729 150.8448C 241.181 151.0138 241.832 150.8448 242.087 151.15579L242.087 151.15579L241.747 163.9418zM249.272 165.1578C 248.058 165.1568 246.847 165.0518 245.651 164.8468C 245.51 160.3208 245.453 155.5688 245.651 151.0428C 245.962 150.8158 246.302 151.21179 246.69699 151.0428C 247.093 150.8728 248.083 150.7038 248.508 151.24081C 249.017 155.6818 249.3 160.2068 249.498 164.76181zM246.188 215.16881C 246.896 215.16881 246.811 214.3488 247.291 214.23581C 247.631 217.0358 247.122 216.9788 246.188 215.2258zM250.686 217.9968C 249.95 217.5728 249.095 217.4048 248.254 217.5168C 249.923 216.52681 250.48799 217.26181 251.082 217.8558zM249.243 221.3638C 248.629 221.05681 248.26 220.4088 248.31 219.7238C 248.569 219.40381 249.01 219.2998 249.385 219.4688C 249.701 220.1148 249.647 220.8808 249.243 221.4768zM251.874 221.6188C 252.157 221.1378 253.034 221.05281 252.977 220.34581C 253.628 219.8358 254.816 221.1098 254.42 222.1558C 253.628 222.0148 252.326 222.60881 251.874 221.8448zM197.337 226.9928C 196.346 226.73781 195.073 226.9928 194.282 226.2288C 194.05 225.4808 194.31 224.6678 194.932 224.19281C 196.023 223.5968 197.357 223.6618 198.384 224.3618C 198.622 224.9418 198.622 225.5928 198.384 226.1728C 198.31 226.6828 197.849 227.04381 197.337 226.9928M194.706 230.1608C 194.393 229.7838 194.393 229.2368 194.706 228.8598C 195.442 228.4068 196.291 228.8598 197.026 228.8598C 197.489 229.0488 197.711 229.5768 197.523 230.03981C 197.51 230.07181 197.495 230.1028 197.478 230.1328C 196.685 230.7308 195.596 230.7418 194.791 230.1608zM269.78 225.4088C 269.309 227.2948 268.771 229.1808 268.167 231.0658C 264.462 215.5938 255.636 202.1578 246.443 188.9758C 245.986 188.1398 245.382 187.3918 244.661 186.7688C 243.851 187.1288 243.14099 187.6828 242.596 188.3818C 249.176 197.45581 254.995 207.0588 259.992 217.0928C 261.171 219.6428 262.118 222.2928 262.82098 225.0128C 255.831 214.39081 246.673 205.3678 235.948 198.5368C 232.37799 195.9368 228.593 193.6468 224.634 191.6908L224.634 191.6908L224.634 173.5018L224.634 173.5018L224.407 168.3268L224.407 168.3268L235.07199 169.1458L235.07199 169.1458L254.33499 170.41881L254.33499 170.41881L274.504 171.4098L274.504 171.4098L279.426 171.6348L279.426 171.6348L271.279 219.7238C 273.974 220.58081 276.713 221.2978 279.482 221.8728L279.482 221.8728L293.145 224.7018C 294.22 225.09781 295.577 224.41881 295.973 225.8058C 297.814 235.6348 298.883 245.59381 299.16998 255.5908C 296.432 252.5918 293.882 249.4268 291.53198 246.1148C 291.277 245.5578 291.402 244.89981 291.843 244.4738C 292.343 244.1918 292.956 244.1918 293.456 244.4738C 294.022 244.6718 294.587 245.8318 295.238 245.18181C 294.813 239.9488 294.05 234.8568 293.258 229.7368L293.258 229.7368L292.947 228.94481L292.947 228.94481L288.166 227.9828L288.166 227.9828L274.249 225.6638C 272.804 225.3958 271.331 225.3098 269.864 225.4088zM212.074 254.6288C 211.663 252.6008 211.577 250.5188 211.82 248.4628C 212.374 249.1398 212.876 249.8588 213.319 250.61281C 213.885 251.5458 214.875 252.3948 214.45 253.66681C 214.30899 254.2328 212.584 255.7888 212.159 254.6288zM291.476 257.6848C 291.898 256.2728 292.418 254.8928 293.031 253.55481C 293.654 253.7808 293.965 254.5728 294.44598 255.02481C 295.174 255.8558 295.739 256.8158 296.115 257.8538C 294.7 257.8828 293.06 257.8828 291.56 257.6848zM286.582 258.4768C 283.52798 256.9768 280.501 255.3078 277.389 253.9218C 277.7 253.5258 278.464 253.41281 279.086 253.1018C 279.58398 252.8658 279.932 252.4008 280.019 251.85681C 280.172 251.2598 280.001 250.62581 279.567 250.1878C 278.567 249.2328 277.146 248.8588 275.805 249.1988C 275.138 249.4198 274.589 249.8978 274.27798 250.5278C 273.938 251.20581 274.27798 251.9978 274.617 252.5928C 271.788 251.6588 268.705 250.5278 265.735 249.5658C 273.65 248.1768 281.734 248.0338 289.694 249.1418C 290.046 249.29381 290.246 249.6698 290.175 250.0468C 289.173 252.9228 288.002 255.7388 286.667 258.4768zM220.334 266.1428C 219.831 265.8038 219.406 265.3598 219.09 264.8408C 218.721 263.8788 217.052 263.2568 217.647 262.0118L217.647 262.0118L219.768 261.8428C 220.561 262.1538 221.324 262.2668 221.409 263.1158C 220.928 263.7658 221.29599 265.88782 220.419 266.1428zM289.411 263.7938L289.864 261.5598C 291.476 261.36182 293.173 261.7288 294.899 261.5598C 294.786 262.8558 294.305 264.0928 293.512 265.1238C 292.121 264.8588 290.77 264.4118 289.495 263.7938zM297.586 266.1988C 298.04498 265.0488 298.603 263.9418 299.255 262.8888C 299.368 264.0838 299.368 265.2868 299.255 266.4818C 298.71 266.5768 298.149 266.4768 297.671 266.1988zM226.387 273.1288C 225.328 272.5608 224.62599 271.4968 224.521 270.3008C 224.69 270.0458 225.086 269.2538 225.596 269.5368C 226.303 270.2438 227.236 271.1778 227.179 272.1668C 227.146 272.5968 226.871 272.9688 226.472 273.1288zM222.795 303.7348C 219.556 299.0058 216.817 293.95282 214.62 288.6588C 216.561 288.6618 218.499 288.8028 220.419 289.0828L220.419 289.0828L228.396 290.43982C 228.203 287.2558 227.232 284.1668 225.567 281.4448C 223.101 277.4968 219.50299 274.3828 215.243 272.5068C 211.699 271.3408 208.019 270.63782 204.29599 270.41382C 205.201 269.6778 206.191 269.7338 206.474 268.8858C 206.731 267.7018 206.44 266.4648 205.681 265.5198C 205.05899 265.0108 204.155 265.29282 203.362 265.1238C 203.362 264.6148 203.786 264.0768 203.815 263.4548C 203.98 261.6258 203.176 259.8438 201.693 258.7588L201.693 258.7588L201.523 252.2528L201.523 252.2528L201.354 234.9978C 201.693 234.4328 202.486 234.4328 202.938 234.0078C 203.216 233.6288 203.216 233.1138 202.938 232.73581C 202.344 231.4058 202.372 230.6698 202.061 230.1328C 200.25 229.3698 201.043 227.3038 200.986 225.80481L200.986 225.80481L200.986 221.8448C 203.317 214.4378 206.739 207.4218 211.14099 201.0258C 216.35 203.86281 220.87 207.8128 224.379 212.5948C 226.048 211.9438 226.897 211.5768 227.519 210.5018C 226.87 209.3448 226.07199 208.2798 225.143 207.3338L225.143 207.3338L225.143 198.6218L225.143 198.6218L230.263 201.2518C 235.597 204.7778 240.698 208.6428 245.538 212.8208C 245.171 213.3968 245.108 214.1148 245.368 214.7448C 244.743 215.0058 244.19 215.4128 243.756 215.9328C 243.416 216.3878 243.33 216.9848 243.52899 217.5168C 243.706 218.2008 244.254 218.7258 244.944 218.87381C 245.368 218.87381 245.934 218.6768 245.962 218.1958C 245.99 217.7148 245.02899 217.28981 245.538 216.8098C 246.245 217.0078 246.5 218.3928 247.518 217.9698C 246.811 218.5638 245.736 219.4968 246.132 220.7978C 246.3 221.4778 246.783 222.0358 247.433 222.2968C 247.993 222.5798 248.655 222.5798 249.215 222.2968C 250.176 223.1738 248.339 223.3148 248.339 224.1638C 248.159 224.6878 248.20999 225.2648 248.48 225.7478C 249.08 226.8688 250.298 227.5168 251.563 227.38881C 251.879 227.3818 252.16899 227.20981 252.327 226.9358C 252.327 225.6068 250.205 226.3428 250.205 224.8148C 250.205 224.3058 250.601 224.0228 250.969 223.7968C 251.37599 223.6248 251.83499 223.6248 252.242 223.7968C 252.694 224.5598 253.26 225.4088 254.25 225.4938C 253.826 226.1728 253.656 226.48381 253.854 226.73781C 254.052 226.9928 254.731 226.9648 255.099 226.73781C 255.467 226.51181 256.23 225.6638 255.83499 224.95581C 255.438 224.24881 254.137 224.0508 255.01399 223.2878C 255.636 223.6838 255.86299 224.44681 256.23 225.0408C 255.91 225.89081 256.108 226.84981 256.739 227.5018C 256.994 227.7848 257.305 228.2088 257.644 227.9268C 257.984 227.6428 257.644 227.0208 258.295 227.0498C 258.94598 227.0778 259.625 228.29381 260.162 229.0578C 261.447 231.1878 262.572 233.4098 263.529 235.70581C 264.179 236.4968 265.113 235.5078 265.847 236.1578C 266.21 236.3838 266.373 236.8268 266.244 237.2328C 265.113 237.7988 263.84 238.19481 262.651 238.7608C 256.273 241.3188 250.494 245.1708 245.679 250.0758C 244.01 251.7718 242.54 253.7518 241.04 255.4778C 240.163 253.6398 240.248 251.3488 238.94699 249.8208C 238.263 249.63881 237.537 249.7198 236.91 250.0468C 235.977 250.61281 236.599 251.7728 236.62799 252.5648C 237.646 257.1048 238.959 261.5738 240.55899 265.9438C 240.955 266.65082 241.832 266.5948 242.454 266.4248C 243.077 266.2548 243.331 266.1138 243.52899 265.6328C 243.505 264.3728 243.334 263.1198 243.02 261.8988C 245.202 261.1878 247.44699 260.6848 249.724 260.3998C 252.825 259.9638 255.965 259.8698 259.087 260.1168L259.087 260.1168L256.485 265.4628C 256.767 267.1608 258.607 266.9618 259.794 267.5278C 270.034 270.3568 280.33 274.3738 287.26 283.6808C 287.572 284.4438 288.364 285.15082 288.053 286.0558C 286.835 286.7478 285.486 287.1808 284.093 287.3288C 274.759 288.4058 265.30798 287.8308 256.174 285.6318C 248.80699 283.8628 241.65 281.3218 234.817 278.0508C 234.449 277.7958 233.912 277.5978 233.799 277.1178C 234.56 276.70282 235.422 276.5068 236.288 276.55182C 236.91 276.55182 237.36299 276.9478 237.901 276.8348C 238.099 275.9858 236.91 275.4768 237.39099 274.6278C 237.68399 274.0368 238.175 273.5668 238.778 273.2988C 240.814 272.9028 241.153 275.4488 242.76599 276.1268C 243.52899 276.4388 243.558 275.6188 243.756 275.2228C 244.37599 273.3798 243.93 271.3458 242.596 269.9328C 241.513 268.9388 240.013 268.53882 238.579 268.8578C 236.854 269.1408 235.977 270.9788 235.552 272.4218C 235.298 272.8178 234.874 272.4218 234.647 272.4218C 233.649 271.6848 232.482 271.2078 231.25299 271.0358C 230.716 270.3848 229.867 269.7338 229.839 268.8578C 231.055 268.4618 232.328 268.0938 233.601 267.7828C 234.392 267.7828 234.902 268.34882 235.694 268.34882C 236.232 267.8678 235.694 267.1038 235.694 266.65082C 234.45999 264.5948 232.237 263.3378 229.839 263.3418C 229.018 263.3418 228.368 263.9068 227.632 263.8508C 226.897 263.7938 227.632 262.5788 227.236 262.0408C 227.023 261.2128 226.481 260.5078 225.737 260.0888C 224.775 259.3818 222.597 260.4558 222.512 258.70282C 222.88 258.2788 223.502 257.6848 223.983 257.7688C 224.464 257.8538 225.85 259.8338 226.387 258.24982C 226.387 256.5808 225.143 255.67581 223.55899 254.91281C 223.05 254.6288 222.314 254.7148 222.06 254.1478C 223.028 252.4248 223.242 250.3778 222.65399 248.4908C 222.116 248.0948 222.399 246.9078 221.551 247.1048C 221.12599 248.4278 220.202 249.5348 218.976 250.1878C 217.138 249.53781 217.703 247.3598 216.827 245.91681C 216.456 244.9158 215.962 243.9668 215.356 243.0888C 214.62 243.0888 214.535 244.1348 213.941 244.5308C 213.545 244.2198 213.772 243.45581 213.941 243.0318C 215.625 235.88881 218.913 229.2238 223.55899 223.54181L223.55899 223.54181L228.594 223.54181C 229.131 223.54181 229.358 223.0328 229.386 222.60881C 229.386 221.4198 229.386 219.7798 228.113 219.3558C 226.84 218.9308 225.596 219.3558 224.351 219.04381C 222.867 216.73781 221.11 214.6198 219.118 212.73581L219.118 212.73581L212.244 206.56981C 210.161 210.3468 208.273 214.2268 206.587 218.1958C 205.936 219.6098 204.72 220.7418 204.607 222.3538C 205.023 223.5518 205.15799 224.8298 205.00299 226.0878C 204.635 227.8418 203.249 230.2738 205.00299 231.7458C 207.045 225.4258 209.898 219.3978 213.489 213.8108C 216.125 215.3638 218.226 217.6828 219.514 220.4588C 216.174 225.0888 213.33 230.05681 211.028 235.2818C 209.55 233.9488 207.442 233.5758 205.597 234.3188C 205.739 236.5098 206.357 238.6428 207.407 240.5708C 207.407 241.0238 206.813 240.9668 206.587 241.33481C 205.707 243.3768 206.105 245.7458 207.605 247.3878C 207.605 248.0668 206.813 248.3778 206.756 249.00081C 206.474 250.7258 208.397 250.8388 209.359 251.5458C 209.642 252.02681 208.935 251.9708 208.793 252.3668C 208.793 253.4698 209.953 254.2338 210.43399 255.1948L210.43399 255.1948L211.962 261.36182C 212.212 261.6198 212.623 261.62482 212.881 261.37482C 212.886 261.3708 212.89 261.3658 212.89499 261.36182L212.89499 261.36182L214.62 259.6368C 215.101 259.6368 215.271 260.2298 215.526 260.5698C 215.526 261.3898 214.535 261.41782 214.026 261.8988C 213.517 262.3798 213.149 262.6058 213.545 263.1438C 217.038 267.4218 220.819 271.4578 224.86 275.2228C 225.313 275.7878 225.85 276.2968 225.82199 277.0328C 225.663 277.4128 225.385 277.7298 225.03 277.9378C 225.73 279.0828 226.969 279.7878 228.311 279.8048C 228.98999 279.9748 229.612 278.8428 230.093 279.6068C 230.07199 282.2338 230.951 284.78882 232.583 286.84882C 233.374 287.6968 234.336 288.91382 235.552 289.02582C 235.92 289.02582 236.316 288.71582 236.26 288.3188C 235.849 287.0678 235.564 285.7798 235.411 284.4718C 237.024 286.7638 237.986 289.5068 240.474 290.9208C 240.955 291.09082 241.577 290.9208 241.776 290.5248C 241.776 289.3938 240.899 288.5178 240.673 287.4418C 240.673 287.0178 240.277 286.4238 240.673 286.1128C 241.069 285.80182 241.493 286.7638 241.691 287.21582C 242.656 289.7308 244.887 291.5418 247.546 291.9678C 248.25 292.05182 248.964 291.9448 249.611 291.6568C 249.979 291.3738 249.809 290.8928 249.611 290.5248C 248.98 289.81482 248.429 289.0378 247.971 288.2058C 257.012 291.24982 266.49 292.7978 276.031 292.78882C 280.603 292.7728 285.152 292.1358 289.552 290.8928C 290.426 290.6468 291.27 290.3058 292.07 289.87482C 293.247 289.3728 294.089 288.3078 294.304 287.0458C 294.304 282.9158 291.108 280.1158 288.477 277.0608C 283.686 272.4168 278.161 268.5948 272.128 265.7468C 269.28198 264.5108 266.374 263.4248 263.415 262.4928C 263.613 261.16382 265.056 260.1738 264.886 258.6178C 264.831 257.8468 264.464 257.1308 263.868 256.63782L263.868 256.63782L262.51 256.1008C 257.229 255.4908 251.89 255.6048 246.64099 256.43982C 250.701 250.6478 256.186 245.9998 262.567 242.94681C 264.922 241.9658 267.455 241.4848 270.006 241.5328C 271.506 237.8838 272.495 234.0368 273.68298 230.2178C 278.822 230.3008 283.939 230.8978 288.958 231.9998C 289.807 234.9698 290.231 238.08081 290.825 241.19281C 290.118 241.7028 288.958 241.6178 288.421 242.5228C 287.987 243.2978 287.627 244.11281 287.345 244.9548C 284.517 244.9548 281.236 244.7008 278.15298 244.9548C 272.753 245.0338 267.38 245.73581 262.142 247.0488C 260.869 247.6998 259.93298 248.8618 259.568 250.2448C 259.884 250.72481 260.352 251.08281 260.898 251.2628C 268.376 253.45581 275.522 256.6538 282.141 260.7678C 281.434 262.4648 283.669 263.3978 284.574 264.52982C 286.466 266.1068 288.57 267.4118 290.825 268.40482L290.825 268.40482L291.702 269.0838C 291.306 270.3008 289.91998 271.3188 290.514 272.7048C 291.08 273.2988 291.617 273.9768 292.466 273.8928C 294.503 273.5808 294.672 271.4038 295.776 270.1028L295.776 270.1028L299.538 270.1028C 299.99 271.9978 299.142 273.83582 300.103 275.2228C 300.706 275.8558 301.614 276.0968 302.451 275.8448C 303.555 275.3068 303.555 274.1188 303.69598 273.0158L303.69598 273.0158L304.007 259.9188L304.007 259.9188L303.611 247.1618C 303.28198 238.8848 302.136 230.6598 300.188 222.60881C 299.292 221.8508 298.224 221.3268 297.076 221.08081C 290.26 219.2428 284.432 217.9978 277.473 216.6118L277.473 216.6118L280.557 195.5098L280.557 195.5098L284.8 172.4848L284.8 172.4848L285.931 167.3928L285.931 167.3928L260.983 165.9788L260.983 165.9788L255.325 165.46881L255.325 165.46881L253.769 151.6088C 253.939 151.15579 253.769 150.4198 254.533 150.4198C 255.908 151.0168 257.481 150.9548 258.804 150.2508C 259.427 149.6118 259.876 148.8228 260.106 147.9588L260.106 147.9588L261.973 147.1958C 263.104 147.1958 264.43298 147.87381 265.311 146.96881C 266.046 146.4888 265.905 145.6678 266.244 145.01779L266.244 145.01779L268.648 143.8298C 269.26 144.1808 269.996 144.2438 270.65698 143.99881C 271.591 143.6978 272.264 142.8808 272.382 141.9068C 275.551 139.72781 279.369 138.7388 282.141 135.7958L282.141 135.7958L276.682 130.1388L276.682 130.1388L275.522 130.1388C 270.76498 131.53381 265.888 132.4808 260.954 132.9668C 253.559 133.7328 246.112 133.87381 238.693 133.3918C 230.18 132.8708 221.718 131.7168 213.376 129.9408C 210.659 131.2028 208.247 133.0358 206.304 135.3158C 207.795 136.6188 209.394 137.79181 211.08499 138.8228C 212.951 139.72781 214.818 140.77481 216.742 141.8778C 217.271 143.2238 218.524 144.1478 219.967 144.2538L219.967 144.2538L221.183 144.0838L221.183 144.0838L223.192 145.1308C 223.442 146.0028 224.033 146.7378 224.832 147.16681C 225.803 147.6478 226.944 147.6478 227.915 147.16681L227.915 147.16681L230.461 148.1578C 230.97 148.9208 231.479 149.9968 232.469 150.2498C 233.169 150.4918 233.911 150.5778 234.647 150.5048C 234.138 155.0588 233.488 159.2468 232.752 163.5448L232.752 163.5448L220.221 162.8098L220.221 162.8098L220.674 201.5628C 219.712 200.96881 219.175 200.0928 218.18399 199.4418C 216.249 198.0388 214.07199 197.0028 211.763 196.38681C 210.306 196.21881 208.851 196.7178 207.803 197.7448C 205.427 201.19481 203.362 204.8448 201.297 208.4368C 200.76 200.8838 200.194 134.89081 200.194 134.89081C 198.35199 134.8638 196.51 134.9488 194.678 135.14581L194.678 135.14581L195.611 220.2038C 195.018 220.7128 194.055 220.6288 193.377 220.9958C 192.16 221.4198 192.33 222.7498 192.274 223.8248C 191.307 224.53981 190.899 225.7888 191.256 226.9358C 190.756 228.0588 190.919 229.3658 191.679 230.33081C 192.69699 231.20781 192.472 232.76381 193.744 233.49881C 194.388 233.9438 195.107 234.2688 195.866 234.45981L195.866 234.45981L196.177 258.1088C 196.177 258.8438 195.272 259.1838 195.073 259.7778C 194.45 260.9808 194.148 262.3258 194.19699 263.6808C 188.539 257.6558 185.93799 250.1878 181.892 243.3988C 180.43399 241.1718 178.014 239.7578 175.358 239.58081C 172.558 239.6988 170.011 241.2338 168.597 243.65381C 166.45 248.18181 165.834 253.2848 166.84299 258.1928C 168.62799 268.2158 173.97101 277.2568 181.892 283.65082C 186.476 287.5508 191.487 290.9198 196.828 293.6938C 197.114 296.05182 197.606 298.37982 198.299 300.6518C 198.498 301.0148 198.949 301.1518 199.317 300.9628C 199.883 300.73682 199.939 300.1428 200.137 299.6618L200.137 299.6618L201.071 295.9558C 208.025 299.3248 215.304 301.97882 222.795 303.8768zM212.074 295.2488C 208.566 293.9128 205.15399 292.3338 201.863 290.5248C 201.774 289.2828 201.869 288.0348 202.146 286.8198C 202.211 286.4428 202.528 286.1618 202.909 286.1408C 203.47299 285.9698 203.83899 285.4258 203.786 284.8398C 203.846 284.2408 203.561 283.6598 203.051 283.3408C 200.675 282.68982 198.299 282.0108 195.923 281.27582C 195.357 281.1058 194.565 280.6818 194.055 281.27582C 193.738 281.8538 193.656 282.5338 193.829 283.1708C 194.055 284.1608 195.187 284.0478 195.724 284.75482C 196.062 285.4438 195.801 286.2768 195.131 286.6498C 191.437 284.4578 187.92801 281.9698 184.636 279.2098C 175.64099 271.8558 170.493 261.7568 172.416 250.1318C 172.86899 248.6318 172.586 246.73781 174.08499 245.8318C 174.768 245.4798 175.58 245.4798 176.263 245.8318C 177.739 247.1038 178.88501 248.7158 179.601 250.5278C 181.987 255.8588 184.946 260.91382 188.426 265.6048C 192.237 270.5468 197.612 274.0478 203.673 275.5328C 210.377 276.6648 217.986 277.2878 221.692 284.1888C 216.924 283.1628 211.98 283.2788 207.265 284.5278C 208.701 288.0828 210.364 291.5408 212.244 294.8808zM252.864 220.2888C 252.581 220.0348 252.04399 219.8928 252.383 219.4118C 252.698 219.5728 252.911 219.8808 252.949 220.2328z" stroke="none" fill="#231F20" fill-rule="nonzero" />
    <path id=""  transform="matrix(1 0 0 -1 0 326)"  d="M225.6531 281.4797C 225.7281 280.80472 225.43411 280.1417 224.88411 279.7437C 224.2341 279.20972 223.37611 279.0007 222.5531 279.1727C 222.13011 279.33072 221.80711 279.6807 221.6851 280.1157C 221.6421 280.7107 221.8701 281.2937 222.3051 281.7027C 223.22311 282.2727 225.2321 282.9677 225.6531 281.4797" stroke="none" fill="#231F20" fill-rule="nonzero" />
    <path id=""  transform="matrix(1 0 0 -1 0 326)"  d="M214.5354 281.7566C 214.9314 281.13458 214.9314 280.3406 214.5354 279.7196C 213.9014 278.98358 212.9594 278.5856 211.9894 278.6446C 211.3844 278.66858 210.8134 278.9326 210.4054 279.38058C 210.0694 279.79758 210.0034 280.3696 210.2354 280.8506C 210.7054 281.7846 211.6524 282.3826 212.6964 282.4066C 213.3474 282.3216 214.0544 282.3506 214.5354 281.7566" stroke="none" fill="#231F20" fill-rule="nonzero" />
    <path id=""  transform="matrix(1 0 0 -1 0 326)"  d="M206.0491 281.2473C 206.35611 280.81833 206.4201 280.2633 206.2191 279.7763C 205.8911 279.1043 205.2961 278.60132 204.57811 278.39032C 203.80411 278.11133 202.9471 278.18433 202.23111 278.58832C 201.7121 279.01132 201.5281 279.7213 201.7781 280.34232C 202.3251 281.2463 203.2711 281.83432 204.3241 281.9263C 204.9671 281.94232 205.5901 281.69733 206.0491 281.2473" stroke="none" fill="#231F20" fill-rule="nonzero" />
    <path id=""  transform="matrix(1 0 0 -1 0 326)"  d="M193.5466 280.823C 193.9146 279.814 193.6086 278.681 192.7826 277.994C 192.2096 277.484 191.4536 277.229 190.6896 277.287C 190.1246 277.357 189.6566 277.758 189.5016 278.305C 189.3386 279.325 189.8086 280.342 190.6896 280.88C 191.3966 281.50198 193.0936 282.039 193.5466 280.823" stroke="none" fill="#231F20" fill-rule="nonzero" />
    <path id=""  transform="matrix(1 0 0 -1 0 326)"  d="M197.3372 278.4187C 197.7332 277.7967 197.7332 277.00272 197.3372 276.3817C 196.7032 275.3567 195.53821 274.7847 194.33821 274.9107C 193.89621 275.0447 193.5352 275.36472 193.3482 275.7877C 193.1942 276.9247 193.74121 278.0417 194.7342 278.6167C 195.6112 278.9837 196.8282 279.3237 197.3372 278.4187" stroke="none" fill="#231F20" fill-rule="nonzero" />
    <path id=""  transform="matrix(1 0 0 -1 0 326)"  d="M187.408 275.7878C 187.632 274.49582 187.17201 273.1798 186.192 272.3088C 185.643 271.7778 184.886 271.5188 184.127 271.6008C 183.53401 271.69382 183.02 272.06082 182.741 272.59082C 182.358 273.73682 182.641 274.99982 183.476 275.87183C 184.06201 276.44882 184.81401 276.8248 185.626 276.9478C 186.40201 276.96182 187.108 276.5028 187.408 275.7878" stroke="none" fill="#231F20" fill-rule="nonzero" />
    <path id=""  transform="matrix(1 0 0 -1 0 326)"  d="M188.8508 270.9226C 189.6428 270.0736 189.0488 268.82962 188.8508 267.8956C 188.4568 266.9946 187.7258 266.2846 186.8138 265.91562C 186.2028 265.76462 185.55879 265.9476 185.1168 266.3966C 184.7208 266.9906 184.21179 267.5846 184.4948 268.37662C 184.6518 269.8976 185.7138 271.1726 187.1818 271.6016C 187.8148 271.6556 188.4358 271.4036 188.8508 270.9226" stroke="none" fill="#231F20" fill-rule="nonzero" />
    <path id=""  transform="matrix(1 0 0 -1 0 326)"  d="M180.1951 267.2737C 180.7051 266.24973 180.7051 265.0447 180.1951 264.02072C 179.8231 263.23972 179.1641 262.6317 178.3571 262.3237C 177.6081 262.17572 176.8391 262.4457 176.3481 263.0307C 175.81909 264.16772 175.9261 265.5007 176.6311 266.53873C 177.0791 267.25272 177.8081 267.7467 178.6391 267.89572C 179.2261 267.9377 179.7991 267.7077 180.1951 267.2737" stroke="none" fill="#231F20" fill-rule="nonzero" />
    <path id=""  transform="matrix(1 0 0 -1 0 326)"  d="M180.6194 259.1833C 181.0424 258.19928 181.0424 257.0843 180.6194 256.10028C 180.2264 255.36029 179.5704 254.79428 178.7814 254.5163C 178.0454 254.5163 177.2244 254.5163 176.8284 255.19528C 176.2384 256.5333 176.4344 258.0893 177.3384 259.2403C 177.7294 259.7953 178.3334 260.1633 179.0074 260.2583C 179.7024 260.2283 180.3244 259.8143 180.6194 259.1833" stroke="none" fill="#231F20" fill-rule="nonzero" />
    <path id=""  transform="matrix(1 0 0 -1 0 326)"  d="M287.4592 255.3083C 288.0352 254.8753 288.2542 254.1133 287.9962 253.4413C 287.0232 252.2353 285.4852 251.6333 283.9512 251.8573C 283.2172 252.0833 282.65118 252.67131 282.4522 253.41231C 282.0962 254.07831 282.25018 254.9003 282.8202 255.39331C 284.2052 256.4253 286.1122 256.3903 287.4592 255.3083" stroke="none" fill="#231F20" fill-rule="nonzero" />
    <path id=""  transform="matrix(1 0 0 -1 0 326)"  d="M237.3992 181.6887C 237.6242 178.17471 237.9612 174.5197 238.0742 171.0047C 234.6442 170.72371 231.0732 170.4707 227.6432 170.27371L227.6432 170.27371L226.9402 180.8737C 226.9402 180.8737 229.5552 181.09871 229.1612 181.09871L229.1612 181.09871L229.7232 172.66371L229.7232 172.66371L235.6562 173.14171C 235.6562 174.32271 235.4872 179.7487 235.6562 179.2987C 235.8242 178.84871 233.4622 179.1307 233.4622 179.1307L233.4622 179.1307L233.4622 175.2227C 232.8272 175.1647 232.1872 175.1647 231.5512 175.2227L231.5512 175.2227L231.1292 181.23871C 230.8762 181.18271 237.3992 181.6887 237.3992 181.6887" stroke="none" fill="#231F20" fill-rule="nonzero" />
    <path id=""  transform="matrix(1 0 0 -1 0 326)"  d="M249.967 182.5325C 250.192 179.04651 250.50099 175.3625 250.61299 171.8485C 247.18399 171.5945 243.61299 171.3135 240.183 171.11751L240.183 171.11751L239.48 181.7175C 239.48 181.7175 242.094 181.9415 241.70099 181.9415L241.70099 181.9415L242.263 173.5075L242.263 173.5075L248.196 173.9855C 248.196 175.1665 248.027 180.5925 248.196 180.1425L248.196 180.1425L245.97499 180.0015L245.97499 180.0015L245.97499 176.0945C 245.347 176.0515 244.718 176.0515 244.09099 176.0945L244.09099 176.0945L243.64099 182.1385C 243.416 182.0265 249.967 182.5325 249.967 182.5325" stroke="none" fill="#231F20" fill-rule="nonzero" />
    <path id=""  transform="matrix(1 0 0 -1 0 326)"  d="M262.6755 183.8538C 262.9005 180.3388 263.2095 176.6848 263.3215 173.1698C 259.9205 172.88881 256.3215 172.6078 252.8905 172.41081L252.8905 172.41081L252.1875 183.0388C 252.1875 183.0388 254.8025 183.23581 254.4095 183.23581L254.4095 183.23581L254.97151 174.80081L254.97151 174.80081L260.9035 175.27881C 260.9035 176.4308 260.7355 181.8578 260.9035 181.4078C 261.0725 180.95781 258.71152 181.2678 258.6825 181.2678C 258.6545 181.2678 258.6825 177.35881 258.6825 177.35881C 258.0555 177.3168 257.4255 177.3168 256.7995 177.35881L256.7995 177.35881L256.34952 183.40381C 256.1245 183.34781 262.6755 183.8538 262.6755 183.8538" stroke="none" fill="#231F20" fill-rule="nonzero" />
    <path id=""  transform="matrix(1 0 0 -1 0 326)"  d="M274.9905 184.6692C 275.24252 181.1542 275.55252 177.5002 275.66452 173.9852C 272.2355 173.70421 268.66452 173.45021 265.23352 173.25421L265.23352 173.25421L264.53052 183.8542C 264.53052 183.8542 267.1455 184.0782 266.7515 184.0782L266.7515 184.0782L267.3145 175.64421L267.3145 175.64421L273.24652 176.12221C 273.24652 177.2742 273.07852 182.7292 273.24652 182.2792C 273.4155 181.82921 271.0815 182.1102 271.0535 182.1102C 271.02652 182.1102 271.0535 178.2312 271.0535 178.20221C 270.4175 178.14421 269.7785 178.14421 269.1415 178.20221L269.1415 178.20221L268.72052 184.21921C 268.4675 184.16321 274.9905 184.6692 274.9905 184.6692" stroke="none" fill="#231F20" fill-rule="nonzero" />
		</g>
	</g>
</g>
</svg>